<svg xmlns="http://www.w3.org/2000/svg" xmlns:xlink="http://www.w3.org/1999/xlink" width="500" zoomAndPan="magnify" viewBox="0 0 375 374.999991" height="500" preserveAspectRatio="xMidYMid meet" version="1.0"><defs><g/><clipPath id="b1faa0a48f"><path d="M 317.511719 121.847656 L 331.023438 121.847656 L 331.023438 135.355469 L 317.511719 135.355469 Z M 317.511719 121.847656 " clip-rule="nonzero"/></clipPath><clipPath id="6010add967"><path d="M 324.269531 121.847656 C 320.539062 121.847656 317.511719 124.871094 317.511719 128.601562 C 317.511719 132.332031 320.539062 135.355469 324.269531 135.355469 C 328 135.355469 331.023438 132.332031 331.023438 128.601562 C 331.023438 124.871094 328 121.847656 324.269531 121.847656 Z M 324.269531 121.847656 " clip-rule="nonzero"/></clipPath><clipPath id="935ddf3e7f"><path d="M 324.046875 245.503906 L 337.558594 245.503906 L 337.558594 259.015625 L 324.046875 259.015625 Z M 324.046875 245.503906 " clip-rule="nonzero"/></clipPath><clipPath id="e25b154ec9"><path d="M 330.800781 245.503906 C 327.070312 245.503906 324.046875 248.527344 324.046875 252.257812 C 324.046875 255.988281 327.070312 259.015625 330.800781 259.015625 C 334.53125 259.015625 337.558594 255.988281 337.558594 252.257812 C 337.558594 248.527344 334.53125 245.503906 330.800781 245.503906 Z M 330.800781 245.503906 " clip-rule="nonzero"/></clipPath><clipPath id="fffb8b8075"><path d="M 314.84375 142.066406 L 328.355469 142.066406 L 328.355469 155.578125 L 314.84375 155.578125 Z M 314.84375 142.066406 " clip-rule="nonzero"/></clipPath><clipPath id="76bf41b459"><path d="M 321.601562 142.066406 C 317.867188 142.066406 314.84375 145.089844 314.84375 148.820312 C 314.84375 152.550781 317.867188 155.578125 321.601562 155.578125 C 325.332031 155.578125 328.355469 152.550781 328.355469 148.820312 C 328.355469 145.089844 325.332031 142.066406 321.601562 142.066406 Z M 321.601562 142.066406 " clip-rule="nonzero"/></clipPath></defs><path stroke-linecap="butt" transform="matrix(0.684174, 0.307256, -0.307256, 0.684174, 38.876406, 97.523418)" fill="none" stroke-linejoin="miter" d="M 0.00163495 2.50003 L 95.589801 2.501571 " stroke="#ff5757" stroke-width="5" stroke-opacity="1" stroke-miterlimit="4"/><path stroke-linecap="butt" transform="matrix(0.693711, -0.285071, 0.285071, 0.693711, 102.794398, 126.866711)" fill="none" stroke-linejoin="miter" d="M 0.000619635 2.501083 L 154.541738 2.501699 " stroke="#ff5757" stroke-width="5" stroke-opacity="1" stroke-miterlimit="4"/><path stroke-linecap="butt" transform="matrix(0.695031, 0.281835, -0.281835, 0.695031, 211.418355, 82.810058)" fill="none" stroke-linejoin="miter" d="M 0.000950052 2.498519 L 156.311767 2.49962 " stroke="#ff5757" stroke-width="5" stroke-opacity="1" stroke-miterlimit="4"/><g clip-path="url(#b1faa0a48f)"><g clip-path="url(#6010add967)"><path fill="#ff5757" d="M 317.511719 121.847656 L 331.023438 121.847656 L 331.023438 135.355469 L 317.511719 135.355469 Z M 317.511719 121.847656 " fill-opacity="1" fill-rule="nonzero"/></g></g><path stroke-linecap="butt" transform="matrix(0.677817, 0.321036, -0.321036, 0.677817, 39.56734, 221.317164)" fill="none" stroke-linejoin="miter" d="M 0.00106384 2.499516 L 95.516848 2.499532 " stroke="#38b6ff" stroke-width="5" stroke-opacity="1" stroke-miterlimit="4"/><path stroke-linecap="butt" transform="matrix(0.743061, 0.101783, -0.101783, 0.743061, 103.761773, 251.818723)" fill="none" stroke-linejoin="miter" d="M 0.000550441 2.499123 L 144.2785 2.502342 " stroke="#38b6ff" stroke-width="5" stroke-opacity="1" stroke-miterlimit="4"/><path stroke-linecap="butt" transform="matrix(0.742827, -0.103481, 0.103481, 0.742827, 210.455074, 266.503254)" fill="none" stroke-linejoin="miter" d="M 0.00158467 2.498946 L 155.604323 2.499375 " stroke="#38b6ff" stroke-width="5" stroke-opacity="1" stroke-miterlimit="4"/><g clip-path="url(#935ddf3e7f)"><g clip-path="url(#e25b154ec9)"><path fill="#38b6ff" d="M 324.046875 245.503906 L 337.558594 245.503906 L 337.558594 259.015625 L 324.046875 259.015625 Z M 324.046875 245.503906 " fill-opacity="1" fill-rule="nonzero"/></g></g><path stroke-linecap="butt" transform="matrix(0.740381, -0.119735, 0.119735, 0.740381, 37.809205, 134.39791)" fill="none" stroke-linejoin="miter" d="M 0.000852735 2.501675 L 98.024027 2.499721 " stroke="#ffffff" stroke-width="5" stroke-opacity="1" stroke-miterlimit="4"/><path stroke-linecap="butt" transform="matrix(0.743251, -0.100385, 0.100385, 0.743251, 110.43377, 122.653967)" fill="none" stroke-linejoin="miter" d="M -0.00143906 2.499298 L 134.584797 2.497665 " stroke="#ffffff" stroke-width="5" stroke-opacity="1" stroke-miterlimit="4"/><path stroke-linecap="butt" transform="matrix(0.713653, 0.23065, -0.23065, 0.713653, 211.29043, 109.21807)" fill="none" stroke-linejoin="miter" d="M 0.00201718 2.501736 L 151.904791 2.500016 " stroke="#ffffff" stroke-width="5" stroke-opacity="1" stroke-miterlimit="4"/><g clip-path="url(#fffb8b8075)"><g clip-path="url(#76bf41b459)"><path fill="#ffffff" d="M 314.84375 142.066406 L 328.355469 142.066406 L 328.355469 155.578125 L 314.84375 155.578125 Z M 314.84375 142.066406 " fill-opacity="1" fill-rule="nonzero"/></g></g><g fill="#ffffff" fill-opacity="1"><g transform="translate(59.364157, 204.849239)"><g><path d="M 2.546875 -17.953125 C 2.546875 -21.441406 3.289062 -24.566406 4.78125 -27.328125 C 6.269531 -30.085938 8.382812 -32.28125 11.125 -33.90625 C 13.875 -35.539062 17.148438 -36.359375 20.953125 -36.359375 C 24.304688 -36.359375 27.234375 -35.78125 29.734375 -34.625 C 32.242188 -33.46875 34.269531 -31.8125 35.8125 -29.65625 C 37.351562 -27.507812 38.296875 -24.960938 38.640625 -22.015625 L 30.5 -22.015625 C 30.09375 -24.390625 29.023438 -26.1875 27.296875 -27.40625 C 25.566406 -28.625 23.484375 -29.234375 21.046875 -29.234375 C 17.929688 -29.234375 15.421875 -28.273438 13.515625 -26.359375 C 11.617188 -24.441406 10.671875 -21.640625 10.671875 -17.953125 C 10.671875 -14.253906 11.617188 -11.4375 13.515625 -9.5 C 15.421875 -7.570312 17.929688 -6.609375 21.046875 -6.609375 C 23.484375 -6.609375 25.566406 -7.226562 27.296875 -8.46875 C 29.023438 -9.707031 30.09375 -11.507812 30.5 -13.875 L 38.640625 -13.875 C 38.296875 -10.925781 37.351562 -8.375 35.8125 -6.21875 C 34.269531 -4.070312 32.242188 -2.410156 29.734375 -1.234375 C 27.234375 -0.0664062 24.304688 0.515625 20.953125 0.515625 C 17.148438 0.515625 13.875 -0.296875 11.125 -1.921875 C 8.382812 -3.554688 6.269531 -5.757812 4.78125 -8.53125 C 3.289062 -11.3125 2.546875 -14.453125 2.546875 -17.953125 Z M 2.546875 -17.953125 "/></g></g></g><g fill="#ffffff" fill-opacity="1"><g transform="translate(99.014383, 204.849239)"><g><path d="M 2.546875 -17.953125 C 2.546875 -21.441406 3.28125 -24.566406 4.75 -27.328125 C 6.226562 -30.085938 8.332031 -32.28125 11.0625 -33.90625 C 13.789062 -35.539062 17.050781 -36.359375 20.84375 -36.359375 C 24.644531 -36.359375 27.898438 -35.539062 30.609375 -33.90625 C 33.316406 -32.28125 35.40625 -30.085938 36.875 -27.328125 C 38.351562 -24.566406 39.09375 -21.441406 39.09375 -17.953125 C 39.09375 -14.453125 38.351562 -11.3125 36.875 -8.53125 C 35.40625 -5.757812 33.316406 -3.554688 30.609375 -1.921875 C 27.898438 -0.296875 24.644531 0.515625 20.84375 0.515625 C 17.050781 0.515625 13.789062 -0.296875 11.0625 -1.921875 C 8.332031 -3.554688 6.226562 -5.757812 4.75 -8.53125 C 3.28125 -11.3125 2.546875 -14.453125 2.546875 -17.953125 Z M 10.671875 -17.953125 C 10.671875 -14.492188 11.519531 -11.738281 13.21875 -9.6875 C 14.914062 -7.632812 17.457031 -6.609375 20.84375 -6.609375 C 24.238281 -6.609375 26.773438 -7.632812 28.453125 -9.6875 C 30.128906 -11.738281 30.96875 -14.492188 30.96875 -17.953125 C 30.96875 -21.367188 30.128906 -24.101562 28.453125 -26.15625 C 26.773438 -28.207031 24.238281 -29.234375 20.84375 -29.234375 C 17.457031 -29.234375 14.914062 -28.207031 13.21875 -26.15625 C 11.519531 -24.101562 10.671875 -21.367188 10.671875 -17.953125 Z M 10.671875 -17.953125 "/></g></g></g><g fill="#ffffff" fill-opacity="1"><g transform="translate(137.088612, 204.849239)"><g><path d="M 1.53125 -35.84375 L 33.09375 -35.84375 L 33.09375 -28.734375 L 21.40625 -28.734375 L 21.40625 0 L 13.265625 0 L 13.265625 -28.734375 L 1.53125 -28.734375 Z M 1.53125 -35.84375 "/></g></g></g><g fill="#ffffff" fill-opacity="1"><g transform="translate(165.097537, 204.849239)"><g><path d="M 11.1875 0 L 3.046875 0 L 3.046875 -21.8125 C 3.046875 -23.195312 3.425781 -24.265625 4.1875 -25.015625 C 4.957031 -25.765625 6.035156 -26.117188 7.421875 -26.078125 L 24.25 -25.671875 L 24.25 -18.5625 L 11.1875 -18.859375 Z M 11.1875 0 "/></g></g></g><g fill="#ffffff" fill-opacity="1"><g transform="translate(189.345209, 204.849239)"><g><path d="M 2.03125 -13.171875 C 2.03125 -15.878906 2.601562 -18.207031 3.75 -20.15625 C 4.90625 -22.101562 6.5 -23.59375 8.53125 -24.625 C 10.570312 -25.664062 12.914062 -26.1875 15.5625 -26.1875 C 18.238281 -26.1875 20.59375 -25.6875 22.625 -24.6875 C 24.65625 -23.6875 26.25 -22.253906 27.40625 -20.390625 C 28.5625 -18.523438 29.140625 -16.285156 29.140625 -13.671875 L 29.140625 -11.140625 L 9.65625 -11.140625 C 9.65625 -9.679688 10.207031 -8.472656 11.3125 -7.515625 C 12.414062 -6.566406 14.117188 -6.09375 16.421875 -6.09375 C 17.847656 -6.09375 19.0625 -6.347656 20.0625 -6.859375 C 21.0625 -7.367188 21.675781 -8.097656 21.90625 -9.046875 L 30.046875 -9.046875 C 29.910156 -8.128906 29.546875 -7.117188 28.953125 -6.015625 C 28.359375 -4.921875 27.5 -3.875 26.375 -2.875 C 25.257812 -1.875 23.878906 -1.054688 22.234375 -0.421875 C 20.597656 0.203125 18.660156 0.515625 16.421875 0.515625 C 13.128906 0.515625 10.425781 -0.117188 8.3125 -1.390625 C 6.195312 -2.671875 4.617188 -4.351562 3.578125 -6.4375 C 2.546875 -8.519531 2.03125 -10.765625 2.03125 -13.171875 Z M 9.65625 -15.703125 L 21.5 -15.703125 C 21.5 -16.691406 21.078125 -17.582031 20.234375 -18.375 C 19.390625 -19.175781 17.832031 -19.578125 15.5625 -19.578125 C 13.289062 -19.578125 11.738281 -19.175781 10.90625 -18.375 C 10.070312 -17.582031 9.65625 -16.691406 9.65625 -15.703125 Z M 9.65625 -15.703125 "/></g></g></g><g fill="#ffffff" fill-opacity="1"><g transform="translate(219.896196, 204.849239)"><g><path d="M 18.5 -19.0625 C 17.050781 -19.0625 15.773438 -18.765625 14.671875 -18.171875 C 13.566406 -17.578125 12.707031 -16.585938 12.09375 -15.203125 C 11.488281 -13.816406 11.1875 -11.914062 11.1875 -9.5 L 11.1875 0 L 3.046875 0 L 3.046875 -25.671875 L 11.1875 -25.671875 L 11.1875 -22.578125 L 9.65625 -18 L 11.6875 -18 C 12.195312 -20.300781 13.253906 -22.238281 14.859375 -23.8125 C 16.472656 -25.394531 18.65625 -26.1875 21.40625 -26.1875 C 24.695312 -26.1875 27.273438 -25.125 29.140625 -23 C 31.003906 -20.882812 31.9375 -17.84375 31.9375 -13.875 L 31.9375 0 L 23.796875 0 L 23.796875 -12.609375 C 23.796875 -14.953125 23.40625 -16.613281 22.625 -17.59375 C 21.84375 -18.570312 20.46875 -19.0625 18.5 -19.0625 Z M 18.5 -19.0625 "/></g></g></g><g fill="#ffffff" fill-opacity="1"><g transform="translate(252.836367, 204.849239)"><g><path d="M 31.9375 -37.375 L 31.9375 0 L 23.796875 0 L 23.796875 -1.578125 L 25.3125 -6.15625 L 23.28125 -6.15625 C 22.84375 -5.03125 22.242188 -3.957031 21.484375 -2.9375 C 20.722656 -1.925781 19.679688 -1.097656 18.359375 -0.453125 C 17.035156 0.191406 15.304688 0.515625 13.171875 0.515625 C 10.691406 0.515625 8.628906 -0.09375 6.984375 -1.3125 C 5.347656 -2.539062 4.113281 -4.171875 3.28125 -6.203125 C 2.445312 -8.234375 2.03125 -10.453125 2.03125 -12.859375 C 2.03125 -15.304688 2.445312 -17.535156 3.28125 -19.546875 C 4.113281 -21.566406 5.347656 -23.175781 6.984375 -24.375 C 8.628906 -25.582031 10.691406 -26.1875 13.171875 -26.1875 C 15.304688 -26.1875 17.035156 -25.863281 18.359375 -25.21875 C 19.679688 -24.570312 20.722656 -23.75 21.484375 -22.75 C 22.242188 -21.75 22.84375 -20.675781 23.28125 -19.53125 L 25.3125 -19.53125 L 23.796875 -24.09375 L 23.796875 -37.375 Z M 23.796875 -12.859375 C 23.796875 -15.035156 23.207031 -16.613281 22.03125 -17.59375 C 20.863281 -18.570312 19.179688 -19.0625 16.984375 -19.0625 C 14.816406 -19.0625 13.140625 -18.570312 11.953125 -17.59375 C 10.765625 -16.613281 10.171875 -15.035156 10.171875 -12.859375 C 10.171875 -10.691406 10.765625 -9.109375 11.953125 -8.109375 C 13.140625 -7.109375 14.816406 -6.609375 16.984375 -6.609375 C 19.179688 -6.609375 20.863281 -7.109375 22.03125 -8.109375 C 23.207031 -9.109375 23.796875 -10.691406 23.796875 -12.859375 Z M 23.796875 -12.859375 "/></g></g></g><g fill="#ffffff" fill-opacity="1"><g transform="translate(286.793256, 204.849239)"><g><path d="M 27 -7.0625 C 27 -5.644531 26.613281 -4.359375 25.84375 -3.203125 C 25.082031 -2.046875 23.828125 -1.132812 22.078125 -0.46875 C 20.335938 0.1875 17.992188 0.515625 15.046875 0.515625 C 10.335938 0.515625 6.90625 -0.375 4.75 -2.15625 C 2.601562 -3.9375 1.53125 -6.316406 1.53125 -9.296875 L 9.65625 -9.296875 C 9.65625 -8.316406 10.0625 -7.453125 10.875 -6.703125 C 11.6875 -5.960938 13.160156 -5.59375 15.296875 -5.59375 C 16.390625 -5.59375 17.253906 -5.726562 17.890625 -6 C 18.535156 -6.269531 18.859375 -6.710938 18.859375 -7.328125 C 18.859375 -8.003906 18.453125 -8.507812 17.640625 -8.84375 C 16.828125 -9.1875 15.390625 -9.695312 13.328125 -10.375 C 12.140625 -10.78125 10.914062 -11.1875 9.65625 -11.59375 C 8.40625 -12 7.253906 -12.5 6.203125 -13.09375 C 5.148438 -13.6875 4.300781 -14.457031 3.65625 -15.40625 C 3.007812 -16.351562 2.6875 -17.539062 2.6875 -18.96875 C 2.6875 -21.269531 3.671875 -23.046875 5.640625 -24.296875 C 7.609375 -25.554688 10.351562 -26.1875 13.875 -26.1875 C 16.789062 -26.1875 19.144531 -25.753906 20.9375 -24.890625 C 22.738281 -24.023438 24.054688 -22.890625 24.890625 -21.484375 C 25.722656 -20.078125 26.140625 -18.539062 26.140625 -16.875 L 18 -16.875 C 18 -17.789062 17.648438 -18.550781 16.953125 -19.15625 C 16.265625 -19.769531 15.222656 -20.078125 13.828125 -20.078125 C 11.828125 -20.078125 10.828125 -19.585938 10.828125 -18.609375 C 10.828125 -17.992188 11.421875 -17.457031 12.609375 -17 C 13.796875 -16.550781 15.40625 -15.984375 17.4375 -15.296875 C 19.101562 -14.753906 20.660156 -14.1875 22.109375 -13.59375 C 23.566406 -13 24.742188 -12.210938 25.640625 -11.234375 C 26.546875 -10.253906 27 -8.863281 27 -7.0625 Z M 27 -7.0625 "/></g></g></g></svg>